<?xml version="1.0" encoding="UTF-8" standalone="no"?>
<!-- Created with Sodipodi ("http://www.sodipodi.com/") -->
<svg xmlns:inkscape="http://www.inkscape.org/namespaces/inkscape" xmlns:rdf="http://www.w3.org/1999/02/22-rdf-syntax-ns#" xmlns="http://www.w3.org/2000/svg" xmlns:cc="http://creativecommons.org/ns#" xmlns:dc="http://purl.org/dc/elements/1.1/" xmlns:sodipodi="http://sodipodi.sourceforge.net/DTD/sodipodi-0.dtd" xmlns:svg="http://www.w3.org/2000/svg" xmlns:ns1="http://sozi.baierouge.fr" id="svg934" inkscape:version="0.48.3.1 r9886" viewBox="0 0 744.12 496.14" sodipodi:version="0.32" version="1.1" sodipodi:docname="_svgclean2.svg" xmlns:xlink="http://www.w3.org/1999/xlink">
  <sodipodi:namedview id="base" inkscape:window-x="0" inkscape:window-y="0" inkscape:window-height="645" inkscape:window-maximized="0" inkscape:zoom="0.22425739" showgrid="false" inkscape:current-layer="svg934" inkscape:cx="372.04724" inkscape:cy="-30.039287" inkscape:window-width="674"/>
  <rect id="rect733" style="fill-rule:evenodd;stroke-width:1pt;fill:#ffffff" height="496.06" width="744.09" y="0" x="0"/>
  <path id="path556" style="fill:#0099cc" inkscape:connector-curvature="0" d="m744.12 423.93-637.42-423.86h-106.68v70.625l639.78 425.44h104.32v-72.209"/>
  <path id="path558" style="fill:#006699" inkscape:connector-curvature="0" d="m367.86 378.59c-74.562 0-72.149-70.183-72.149-70.183v-107.69h144.3v107.69s2.5321 70.183-72.149 70.183"/>
  <path id="path559" style="stroke:#000000;stroke-width:1.2482;fill:none" inkscape:connector-curvature="0" d="m367.86 378.59c-74.562 0-72.149-70.183-72.149-70.183v-107.69h144.3v107.69s2.5321 70.183-72.149 70.183z"/>
  <path id="path560" style="fill:#ff0000" inkscape:connector-curvature="0" d="m367.23 132.95s-15.401-7.5068-29.938 3.5151-26.214-3.7832-28.121 21.329c-0.0894 1.0128-0.23831 2.8597 0.20852 3.4257 0.47663 0.53621 0.95325 1.549 0.95325 2.2342 0 0.71493 0.47662 1.1022 0.62557 1.4299 0.14894 0.29789 0.5362 0.77451 0.62557 2.0852 0.0596 1.3405-0.14895 1.9661 1.0724 3.2768 1.2511 1.3405 1.3405 5.1535 1.3405 6.2557 0 1.0724 0.77451 4.1109 1.3107 4.7364 0.56599 0.62557 1.4894 2.1746 1.4894 3.5151s0.5362 4.9748 0.32768 5.928c-0.23831 0.92346 1.4001 2.0852 2.8598 2.5619 1.4894 0.47662 19.899 6.4642 46.709 6.0174 26.81-0.47663 36.492-1.9065 47.573-5.928 1.698-0.62557 2.0256-2.0257 1.8767-2.8002-0.17874-0.8043 0-3.2768 0.44683-3.9024 0.47663-0.62557 3.6045-5.6301 2.9789-6.5536-0.62557-0.92346-0.62557-2.9789 0-3.7534 0.62557-0.77452 2.5619-4.5279 2.9491-6.077 0.38726-1.549 0.44684-3.396 1.1618-3.9322 0.71494-0.5362 0.95325-2.2938 1.1022-2.6512 0.11915-0.38726 0.65536-1.5192 1.3703-2.0554 0 0 1.3703-6.3153 0.5362-9.4431-0.83409-3.1278-5.511-16.533-24.546-13.733-19.035 2.8002-14.15-10.694-34.913-5.4812"/>
  <path id="path561" style="stroke:#000000;stroke-width:1.8707;fill:none" inkscape:connector-curvature="0" d="m367.23 132.95s-15.401-7.5068-29.938 3.5151-26.214-3.7832-28.121 21.329c-0.0894 1.0128-0.23831 2.8597 0.20852 3.4257 0.47663 0.53621 0.95325 1.549 0.95325 2.2342 0 0.71493 0.47662 1.1022 0.62557 1.4299 0.14894 0.29789 0.5362 0.77451 0.62557 2.0852 0.0596 1.3405-0.14895 1.9661 1.0724 3.2768 1.2511 1.3405 1.3405 5.1535 1.3405 6.2557 0 1.0724 0.77451 4.1109 1.3107 4.7364 0.56599 0.62557 1.4894 2.1746 1.4894 3.5151s0.5362 4.9748 0.32768 5.928c-0.23831 0.92346 1.4001 2.0852 2.8598 2.5619 1.4894 0.47662 19.899 6.4642 46.709 6.0174 26.81-0.47663 36.492-1.9065 47.573-5.928 1.698-0.62557 2.0256-2.0257 1.8767-2.8002-0.17874-0.8043 0-3.2768 0.44683-3.9024 0.47663-0.62557 3.6045-5.6301 2.9789-6.5536-0.62557-0.92346-0.62557-2.9789 0-3.7534 0.62557-0.77452 2.5619-4.5279 2.9491-6.077 0.38726-1.549 0.44684-3.396 1.1618-3.9322 0.71494-0.5362 0.95325-2.2938 1.1022-2.6512 0.11915-0.38726 0.65536-1.5192 1.3703-2.0554 0 0 1.3703-6.3153 0.5362-9.4431-0.83409-3.1278-5.511-16.533-24.546-13.733-19.035 2.8002-14.15-10.694-34.913-5.4812z"/>
  <path id="path562" style="fill:#ffcc00" inkscape:connector-curvature="0" d="m418.71 179.63c-58.446-18.499-103.46-0.92346-103.46-0.92346s0.41705 2.0554 0.92346 2.681c0.53621 0.62557 1.2511 2.0852 1.2511 3.1576 0 1.1022 0.11916 2.6512 0.11916 3.4853s-0.65536 4.5577 2.681 4.5279 40.602-15.937 93.478 0.8043c0 0 1.4597-1.2809 1.5192-3.1576 0.0298-1.8767 0.35747-3.8428 1.0724-4.8854 0.74473-1.0426 2.4129-4.2896 2.4129-5.6897"/>
  <path id="path563" style="fill:#ffcc00" inkscape:connector-curvature="0" d="m364.52 277.01h-25.35s-2.5023 22.669 17.039 29.521v2.0852h4.1705v2.7108s-7.1792 6.4344-0.95325 13.822v2.2938h1.0426v3.6343h1.1618v5.928s-0.95325 21.15-21.686 31.278v1.2511h55.378v-1.2511c-20.733-10.128-21.686-31.278-21.686-31.278v-5.928h1.1618v-3.6343h1.0128v-2.2938c6.2557-7.3877-0.92346-13.822-0.92346-13.822v-2.7108h4.1705v-2.0852c19.542-6.8515 17.039-29.521 17.039-29.521h-31.576"/>
  <path id="path564" style="stroke:#000000;stroke-width:1.2482;fill:none" inkscape:connector-curvature="0" d="m364.52 277.01h-25.35s-2.5023 22.669 17.039 29.521v2.0852h4.1705v2.7108s-7.1792 6.4344-0.95325 13.822v2.2938h1.0426v3.6343h1.1618v5.928s-0.95325 21.15-21.686 31.278v1.2511h55.378v-1.2511c-20.733-10.128-21.686-31.278-21.686-31.278v-5.928h1.1618v-3.6343h1.0128v-2.2938c6.2557-7.3877-0.92346-13.822-0.92346-13.822v-2.7108h4.1705v-2.0852c19.542-6.8515 17.039-29.521 17.039-29.521h-31.576z"/>
  <path id="path565" style="stroke:#000000;stroke-width:.31278;fill:none" inkscape:connector-curvature="0" d="m355.38 306.24h24.487m-23.652 1.8767h22.818m-18.648 3.0981h14.329m-15.282 14.209h16.384m-15.282 1.7278h14.299m-14.299 3.5449h14.239m-22.967 28.717h31.636m-40.573 7.3281h49.569m-51.446 1.0724h53.382"/>
  <path id="path566" style="fill:#cccccc" inkscape:connector-curvature="0" d="m367.86 275.67c8.9069 0 16.175-7.2387 16.175-16.175 0-8.9069-7.2685-16.146-16.175-16.146-8.9367 0-16.175 7.2387-16.175 16.146 0 8.9367 7.2387 16.175 16.175 16.175"/>
  <path id="path567" style="stroke:#000000;stroke-width:1.2482;fill:none" inkscape:connector-curvature="0" d="m367.86 275.67c8.9069 0 16.175-7.2387 16.175-16.175 0-8.9069-7.2685-16.146-16.175-16.146-8.9367 0-16.175 7.2387-16.175 16.146 0 8.9367 7.2387 16.175 16.175 16.175z"/>
  <path id="path568" style="fill:#cccccc" inkscape:connector-curvature="0" d="m330.2 228.16h-10.069v-10.069h-8.9367v10.069h-10.098v8.9367h10.098v10.098h8.9367v-10.098h10.069v-8.9367"/>
  <path id="path569" style="stroke:#000000;stroke-width:1.2482;fill:none" inkscape:connector-curvature="0" d="m330.2 228.16h-10.069v-10.069h-8.9367v10.069h-10.098v8.9367h10.098v10.098h8.9367v-10.098h10.069v-8.9367"/>
  <path id="path570" style="fill:#cccccc" inkscape:connector-curvature="0" d="m435 228.16h-10.069v-10.069h-8.9367v10.069h-10.098v8.9367h10.098v10.098h8.9367v-10.098h10.069v-8.9367"/>
  <path id="path571" style="stroke:#000000;stroke-width:1.2482;fill:none" inkscape:connector-curvature="0" d="m435 228.16h-10.069v-10.069h-8.9367v10.069h-10.098v8.9367h10.098v10.098h8.9367v-10.098h10.069v-8.9367"/>
  <path id="path572" style="fill:#cccccc" inkscape:connector-curvature="0" d="m381.92 215.5h-10.098v-10.098h-8.9367v10.098h-10.069v8.9367h10.069v10.069h8.9367v-10.069h10.098v-8.9367"/>
  <path id="path573" style="stroke:#000000;stroke-width:1.2482;fill:none" inkscape:connector-curvature="0" d="m381.92 215.5h-10.098v-10.098h-8.9367v10.098h-10.069v8.9367h10.069v10.069h8.9367v-10.069h10.098v-8.9367"/>
  <path id="path574" style="fill:#cccccc" inkscape:connector-curvature="0" d="m330.2 271.83h-10.069v-10.098h-8.9367v10.098h-10.098v8.9367h10.098v10.069h8.9367v-10.069h10.069v-8.9367"/>
  <path id="path575" style="stroke:#000000;stroke-width:1.2482;fill:none" inkscape:connector-curvature="0" d="m330.2 271.83h-10.069v-10.098h-8.9367v10.098h-10.098v8.9367h10.098v10.069h8.9367v-10.069h10.069v-8.9367"/>
  <path id="path576" style="fill:#cccccc" inkscape:connector-curvature="0" d="m435 271.83h-10.069v-10.098h-8.9367v10.098h-10.098v8.9367h10.098v10.069h8.9367v-10.069h10.069v-8.9367"/>
  <path id="path577" style="stroke:#000000;stroke-width:1.2482;fill:none" inkscape:connector-curvature="0" d="m435 271.83h-10.069v-10.098h-8.9367v10.098h-10.098v8.9367h10.098v10.069h8.9367v-10.069h10.069v-8.9367"/>
  <path id="path578" style="fill:#cccccc" inkscape:connector-curvature="0" d="m330.2 315.92h-10.069v-10.098h-8.9367v10.098h-10.098v8.9367h10.098v10.069h8.9367v-10.069h10.069v-8.9367"/>
  <path id="path579" style="stroke:#000000;stroke-width:1.2482;fill:none" inkscape:connector-curvature="0" d="m330.2 315.92h-10.069v-10.098h-8.9367v10.098h-10.098v8.9367h10.098v10.069h8.9367v-10.069h10.069v-8.9367"/>
  <path id="path580" style="fill:#cccccc" inkscape:connector-curvature="0" d="m435 315.92h-10.069v-10.098h-8.9367v10.098h-10.098v8.9367h10.098v10.069h8.9367v-10.069h10.069v-8.9367"/>
  <path id="path581" style="stroke:#000000;stroke-width:1.2482;fill:none" inkscape:connector-curvature="0" d="m435 315.92h-10.069v-10.098h-8.9367v10.098h-10.098v8.9367h10.098v10.069h8.9367v-10.069h10.069v-8.9367"/>
  <path id="path582" style="fill:#167cff" inkscape:connector-curvature="0" d="m367.71 111.36c5.362 0 9.7112-4.3492 9.7112-9.7112s-4.3492-9.7112-9.7112-9.7112-9.7112 4.3492-9.7112 9.7112 4.3492 9.7112 9.7112 9.7112"/>
  <path id="path583" style="stroke:#000000;stroke-width:1.2482;fill:none" inkscape:connector-curvature="0" d="m367.71 111.36c5.362 0 9.7112-4.3492 9.7112-9.7112s-4.3492-9.7112-9.7112-9.7112-9.7112 4.3492-9.7112 9.7112 4.3492 9.7112 9.7112 9.7112z"/>
  <path id="path584" style="fill:#ffcc00" inkscape:connector-curvature="0" d="m376.76 99.948h-7.9537v-12.869h3.0385v-2.591h-3.0385v-3.0385h-2.5916v3.0385h-3.0385v2.5916h3.0385v12.869h-7.5366v1.698h7.5366v0.0894h2.5916v-0.0894h7.9537v-1.698"/>
  <path id="path585" style="stroke:#000000;stroke-width:.62259;fill:none" inkscape:connector-curvature="0" d="m376.76 99.948h-7.9537v-12.869h3.0385v-2.591h-3.0385v-3.0385h-2.5916v3.0385h-3.0385v2.5916h3.0385v12.869h-7.5366v1.698h7.5366v0.0894h2.5916v-0.0894h7.9537v-1.698"/>
  <path id="path586" style="fill:#ffcc00" inkscape:connector-curvature="0" d="m328.86 122.95s7.1792-0.8043 11.32 0.83409c4.1407 1.6384-4.7662 5.4216-3.7236 12.601 0.50642 3.6343 1.2511 5.511 2.2938 7.2685 1.0128 1.7576 2.1746 5.3918 1.549 8.3111h1.3405s1.3703-5.928-0.92346-9.2346c-2.2938-3.3364-3.4257-7.9239-1.1618-12.69 2.2938-4.796 5.6301-6.6727 5.6301-6.6727 3.8428 1.5788 11.945 0.11916 14.239-1.549 2.2938-1.6682 3.4257-3.9322-0.83409-4.1705-4.2598-0.17874-11.528-0.0894-16.533 3.664 0 0-2.5916-3.0385-15.58-1.5788s-22.401 7.0302-25.261 18.707c-1.4597 5.928 4.0513 18.41 9.1452 21.418 0 0-0.14895-2.0256 0.35747-3.4853 0 0-8.6686-9.7112-6.077-18.767 2.5916-9.0261 12.988-14.954 24.218-14.656"/>
  <path id="path587" style="stroke:#000000;stroke-width:.81026;fill:none" inkscape:connector-curvature="0" d="m328.86 122.95s7.1792-0.8043 11.32 0.83409c4.1407 1.6384-4.7662 5.4216-3.7236 12.601 0.50642 3.6343 1.2511 5.511 2.2938 7.2685 1.0128 1.7576 2.1746 5.3918 1.549 8.3111h1.3405s1.3703-5.928-0.92346-9.2346c-2.2938-3.3364-3.4257-7.9239-1.1618-12.69 2.2938-4.796 5.6301-6.6727 5.6301-6.6727 3.8428 1.5788 11.945 0.11916 14.239-1.549 2.2938-1.6682 3.4257-3.9322-0.83409-4.1705-4.2598-0.17874-11.528-0.0894-16.533 3.664 0 0-2.5916-3.0385-15.58-1.5788s-22.401 7.0302-25.261 18.707c-1.4597 5.928 4.0513 18.41 9.1452 21.418 0 0-0.14895-2.0256 0.35747-3.4853 0 0-8.6686-9.7112-6.077-18.767 2.5916-9.0261 12.988-14.954 24.218-14.656z"/>
  <path id="path588" style="fill:#ffffff" inkscape:connector-curvature="0" d="m353.29 121.16c2.2342-0.17874 4.0513-0.56599 4.0215-0.86388s-1.8767-0.41705-4.1109-0.20853c-2.264 0.17874-4.0513 0.566-4.0215 0.86389s1.8469 0.38725 4.1109 0.20852"/>
  <path id="path589" style="stroke:#000000;stroke-width:.81026;fill:none" inkscape:connector-curvature="0" d="m345.1 123.33s-2.5618 2.4129 0 0c2.5916-2.4129 7.9537-4.0513 10.992-3.3662 3.0385 0.71493-0.5362 1.1022-1.549 1.1618-1.0128 0.0894-3.0385 0.47662-6.0174 0"/>
  <path id="path590" style="fill:#ffcc00" inkscape:connector-curvature="0" d="m406.4 123.75s-7.1791-0.83409-11.32 0.83409c-4.1407 1.6682 4.7662 5.3918 3.7236 12.571-0.50641 3.6343-1.2214 5.511-2.264 7.2685-1.0426 1.7576-2.2044 5.4216-1.5788 8.3111h-1.3405s-1.3405-5.928 0.92346-9.2346c2.2938-3.3364 3.4555-7.9239 1.1618-12.69-2.2938-4.796-5.6301-6.6429-5.6301-6.6429-3.8428 1.549-11.945 0.0894-14.239-1.5788-2.264-1.6682-3.4257-3.9322 0.83409-4.1407 4.2598-0.20852 11.558-0.11916 16.533 3.6343 4.9748 3.7534 2.5916-3.0087 15.609-1.5788 12.988 1.4597 22.372 7.0302 25.261 18.737 1.4299 5.928-4.0811 18.38-9.175 21.418 0 0 0.17874-2.0256-0.35746-3.4853 0 0 8.6984-9.741 6.077-18.767-2.5916-9.0559-12.988-14.984-24.218-14.656"/>
  <path id="path591" style="stroke:#000000;stroke-width:.81026;fill:none" inkscape:connector-curvature="0" d="m406.4 123.75s-7.1791-0.83409-11.32 0.83409c-4.1407 1.6682 4.7662 5.3918 3.7236 12.571-0.50641 3.6343-1.2214 5.511-2.264 7.2685-1.0426 1.7576-2.2044 5.4216-1.5788 8.3111h-1.3405s-1.3405-5.928 0.92346-9.2346c2.2938-3.3364 3.4555-7.9239 1.1618-12.69-2.2938-4.796-5.6301-6.6429-5.6301-6.6429-3.8428 1.549-11.945 0.0894-14.239-1.5788-2.264-1.6682-3.4257-3.9322 0.83409-4.1407 4.2598-0.20852 11.558-0.11916 16.533 3.6343 4.9748 3.7534 2.5916-3.0087 15.609-1.5788 12.988 1.4597 22.372 7.0302 25.261 18.737 1.4299 5.928-4.0811 18.38-9.175 21.418 0 0 0.17874-2.0256-0.35746-3.4853 0 0 8.6984-9.741 6.077-18.767-2.5916-9.0559-12.988-14.984-24.218-14.656z"/>
  <path id="path592" style="fill:#ffffff" inkscape:connector-curvature="0" d="m381.98 121.96c-2.2342-0.20852-4.0215-0.59578-4.0215-0.89367 0.0298-0.29789 1.8767-0.38726 4.1109-0.20852 2.264 0.17873 4.0513 0.56599 4.0513 0.86388-0.0298 0.29789-1.8767 0.41705-4.1407 0.23831"/>
  <path id="path593" style="stroke:#000000;stroke-width:.81026;fill:none" inkscape:connector-curvature="0" d="m390.17 124.11s2.5618 2.4129 0 0-7.9537-4.0513-10.992-3.3662c-3.0385 0.71494 0.5362 1.1022 1.549 1.1916 1.0128 0.0596 3.0385 0.44684 6.0174 0"/>
  <path id="path594" style="fill:#ffcc00" inkscape:connector-curvature="0" d="m360.98 115.8v27.644c-0.29789 2.7108 3.3364 6.5536 5.928 7.6856 0 0 6.1365-2.0852 6.5536-7.6856v-29.223h-2.0852v25.261c-0.0894 2.6214-1.7576 7.2983-4.0513 8.0132 0 0-4.4684-0.71493-4.6769-7.8941v-24.636l-1.6682 0.83409"/>
  <path id="path595" style="stroke:#000000;stroke-width:.81026;fill:none" inkscape:connector-curvature="0" d="m360.98 115.8v27.644c-0.29789 2.7108 3.3364 6.5536 5.928 7.6856 0 0 6.1365-2.0852 6.5536-7.6856v-29.223h-2.0852v25.261c-0.0894 2.6214-1.7576 7.2983-4.0513 8.0132 0 0-4.4684-0.71493-4.6769-7.8941v-24.636l-1.6682 0.83409"/>
  <path id="path596" style="fill:#ffffff" inkscape:connector-curvature="0" d="m299.82 153.6c1.8171 0 3.3066-1.4597 3.3066-3.3066 0-1.8171-1.4894-3.3066-3.3066-3.3066-1.8469 0-3.3066 1.4894-3.3066 3.3066 0 1.8469 1.4597 3.3066 3.3066 3.3066"/>
  <path id="path597" style="stroke:#000000;stroke-width:1.2482;fill:none" inkscape:connector-curvature="0" d="m299.82 153.6c1.8171 0 3.3066-1.4597 3.3066-3.3066 0-1.8171-1.4894-3.3066-3.3066-3.3066-1.8469 0-3.3066 1.4894-3.3066 3.3066 0 1.8469 1.4597 3.3066 3.3066 3.3066z"/>
  <path id="path598" style="fill:#ffffff" inkscape:connector-curvature="0" d="m297.73 146c1.8469 0 3.3066-1.4894 3.3066-3.3066 0-1.8171-1.4597-3.3066-3.3066-3.3066-1.8171 0-3.3066 1.4894-3.3066 3.3066 0 1.8171 1.4894 3.3066 3.3066 3.3066"/>
  <path id="path599" style="stroke:#000000;stroke-width:1.2482;fill:none" inkscape:connector-curvature="0" d="m297.73 146c1.8469 0 3.3066-1.4894 3.3066-3.3066 0-1.8171-1.4597-3.3066-3.3066-3.3066-1.8171 0-3.3066 1.4894-3.3066 3.3066 0 1.8171 1.4894 3.3066 3.3066 3.3066z"/>
  <path id="path600" style="fill:#ffffff" inkscape:connector-curvature="0" d="m298.84 136.8c1.8171 0 3.3066-1.4597 3.3066-3.3066 0-1.8171-1.4894-3.3066-3.3066-3.3066-1.8171 0-3.3066 1.4894-3.3066 3.3066 0 1.8469 1.4894 3.3066 3.3066 3.3066"/>
  <path id="path601" style="stroke:#000000;stroke-width:1.2482;fill:none" inkscape:connector-curvature="0" d="m298.84 136.8c1.8171 0 3.3066-1.4597 3.3066-3.3066 0-1.8171-1.4894-3.3066-3.3066-3.3066-1.8171 0-3.3066 1.4894-3.3066 3.3066 0 1.8469 1.4894 3.3066 3.3066 3.3066z"/>
  <path id="path602" style="fill:#ffffff" inkscape:connector-curvature="0" d="m303.99 129.17c1.8171 0 3.3066-1.4894 3.3066-3.3066 0-1.8469-1.4894-3.3066-3.3066-3.3066-1.8469 0-3.3066 1.4597-3.3066 3.3066 0 1.8171 1.4597 3.3066 3.3066 3.3066"/>
  <path id="path603" style="stroke:#000000;stroke-width:1.2482;fill:none" inkscape:connector-curvature="0" d="m303.99 129.17c1.8171 0 3.3066-1.4894 3.3066-3.3066 0-1.8469-1.4894-3.3066-3.3066-3.3066-1.8469 0-3.3066 1.4597-3.3066 3.3066 0 1.8171 1.4597 3.3066 3.3066 3.3066z"/>
  <path id="path604" style="fill:#ffffff" inkscape:connector-curvature="0" d="m310.07 123.6c1.8171 0 3.3066-1.4894 3.3066-3.3066 0-1.8469-1.4894-3.3066-3.3066-3.3066-1.8171 0-3.3066 1.4597-3.3066 3.3066 0 1.8171 1.4894 3.3066 3.3066 3.3066"/>
  <path id="path605" style="stroke:#000000;stroke-width:1.2482;fill:none" inkscape:connector-curvature="0" d="m310.07 123.6c1.8171 0 3.3066-1.4894 3.3066-3.3066 0-1.8469-1.4894-3.3066-3.3066-3.3066-1.8171 0-3.3066 1.4597-3.3066 3.3066 0 1.8171 1.4894 3.3066 3.3066 3.3066z"/>
  <path id="path606" style="fill:#ffffff" inkscape:connector-curvature="0" d="m317.9 120.47c1.8171 0 3.3066-1.4894 3.3066-3.3066 0-1.8171-1.4895-3.3066-3.3066-3.3066-1.8469 0-3.3066 1.4894-3.3066 3.3066 0 1.8171 1.4597 3.3066 3.3066 3.3066"/>
  <path id="path607" style="stroke:#000000;stroke-width:1.2482;fill:none" inkscape:connector-curvature="0" d="m317.9 120.47c1.8171 0 3.3066-1.4894 3.3066-3.3066 0-1.8171-1.4895-3.3066-3.3066-3.3066-1.8469 0-3.3066 1.4894-3.3066 3.3066 0 1.8171 1.4597 3.3066 3.3066 3.3066z"/>
  <path id="path608" style="fill:#ffffff" inkscape:connector-curvature="0" d="m326.09 118.98c1.8171 0 3.3066-1.4597 3.3066-3.3066 0-1.8171-1.4894-3.3066-3.3066-3.3066-1.8469 0-3.3066 1.4894-3.3066 3.3066 0 1.8469 1.4597 3.3066 3.3066 3.3066"/>
  <path id="path609" style="stroke:#000000;stroke-width:1.2482;fill:none" inkscape:connector-curvature="0" d="m326.09 118.98c1.8171 0 3.3066-1.4597 3.3066-3.3066 0-1.8171-1.4894-3.3066-3.3066-3.3066-1.8469 0-3.3066 1.4894-3.3066 3.3066 0 1.8469 1.4597 3.3066 3.3066 3.3066z"/>
  <path id="path610" style="fill:#ffffff" inkscape:connector-curvature="0" d="m333.87 118.54c1.8469 0 3.3066-1.4894 3.3066-3.3364 0-1.8171-1.4597-3.2768-3.3066-3.2768-1.8171 0-3.3066 1.4597-3.3066 3.2768 0 1.8469 1.4894 3.3364 3.3066 3.3364"/>
  <path id="path611" style="stroke:#000000;stroke-width:1.2482;fill:none" inkscape:connector-curvature="0" d="m333.87 118.54c1.8469 0 3.3066-1.4894 3.3066-3.3364 0-1.8171-1.4597-3.2768-3.3066-3.2768-1.8171 0-3.3066 1.4597-3.3066 3.2768 0 1.8469 1.4894 3.3364 3.3066 3.3364z"/>
  <path id="path612" style="fill:#ffffff" inkscape:connector-curvature="0" d="m340.9 119.13c1.8171 0 3.3066-1.4597 3.3066-3.2768 0-1.8469-1.4894-3.3364-3.3066-3.3364-1.8171 0-3.3066 1.4894-3.3066 3.3364 0 1.8171 1.4894 3.2768 3.3066 3.2768"/>
  <path id="path613" style="stroke:#000000;stroke-width:1.2482;fill:none" inkscape:connector-curvature="0" d="m340.9 119.13c1.8171 0 3.3066-1.4597 3.3066-3.2768 0-1.8469-1.4894-3.3364-3.3066-3.3364-1.8171 0-3.3066 1.4894-3.3066 3.3364 0 1.8171 1.4894 3.2768 3.3066 3.2768z"/>
  <path id="path614" style="fill:#ffffff" inkscape:connector-curvature="0" d="m360.89 116.66c1.8469 0 3.3066-1.4894 3.3066-3.3066 0-1.8469-1.4597-3.3066-3.3066-3.3066-1.8171 0-3.3066 1.4597-3.3066 3.3066 0 1.8171 1.4894 3.3066 3.3066 3.3066"/>
  <path id="path615" style="stroke:#000000;stroke-width:1.2482;fill:none" inkscape:connector-curvature="0" d="m360.89 116.66c1.8469 0 3.3066-1.4894 3.3066-3.3066 0-1.8469-1.4597-3.3066-3.3066-3.3066-1.8171 0-3.3066 1.4597-3.3066 3.3066 0 1.8171 1.4894 3.3066 3.3066 3.3066z"/>
  <path id="path616" style="fill:#ffffff" inkscape:connector-curvature="0" d="m367.29 118.36c1.8171 0 3.3066-1.4597 3.3066-3.3066 0-1.8171-1.4894-3.3066-3.3066-3.3066-1.8171 0-3.3066 1.4894-3.3066 3.3066 0 1.8469 1.4894 3.3066 3.3066 3.3066"/>
  <path id="path617" style="stroke:#000000;stroke-width:1.2482;fill:none" inkscape:connector-curvature="0" d="m367.29 118.36c1.8171 0 3.3066-1.4597 3.3066-3.3066 0-1.8171-1.4894-3.3066-3.3066-3.3066-1.8171 0-3.3066 1.4894-3.3066 3.3066 0 1.8469 1.4894 3.3066 3.3066 3.3066z"/>
  <path id="path618" style="fill:#ffffff" inkscape:connector-curvature="0" d="m367.29 142.84c1.8171 0 3.3066-1.4894 3.3066-3.3066 0-1.8171-1.4894-3.3066-3.3066-3.3066-1.8171 0-3.3066 1.4894-3.3066 3.3066 0 1.8171 1.4894 3.3066 3.3066 3.3066"/>
  <path id="path619" style="stroke:#000000;stroke-width:1.2482;fill:none" inkscape:connector-curvature="0" d="m367.29 142.84c1.8171 0 3.3066-1.4894 3.3066-3.3066 0-1.8171-1.4894-3.3066-3.3066-3.3066-1.8171 0-3.3066 1.4894-3.3066 3.3066 0 1.8171 1.4894 3.3066 3.3066 3.3066z"/>
  <path id="path620" style="fill:#ffffff" inkscape:connector-curvature="0" d="m435.66 155.71c1.8469 0 3.3066-1.4894 3.3066-3.3066 0-1.8171-1.4597-3.3066-3.3066-3.3066-1.8171 0-3.3066 1.4894-3.3066 3.3066 0 1.8171 1.4894 3.3066 3.3066 3.3066"/>
  <path id="path621" style="stroke:#000000;stroke-width:1.2482;fill:none" inkscape:connector-curvature="0" d="m435.66 155.71c1.8469 0 3.3066-1.4894 3.3066-3.3066 0-1.8171-1.4597-3.3066-3.3066-3.3066-1.8171 0-3.3066 1.4894-3.3066 3.3066 0 1.8171 1.4894 3.3066 3.3066 3.3066z"/>
  <path id="path622" style="fill:#ffffff" inkscape:connector-curvature="0" d="m437.38 147.49c1.8171 0 3.3066-1.4894 3.3066-3.3066 0-1.8171-1.4894-3.3066-3.3066-3.3066-1.8171 0-3.3066 1.4894-3.3066 3.3066 0 1.8171 1.4894 3.3066 3.3066 3.3066"/>
  <path id="path623" style="stroke:#000000;stroke-width:1.2482;fill:none" inkscape:connector-curvature="0" d="m437.38 147.49c1.8171 0 3.3066-1.4894 3.3066-3.3066 0-1.8171-1.4894-3.3066-3.3066-3.3066-1.8171 0-3.3066 1.4894-3.3066 3.3066 0 1.8171 1.4894 3.3066 3.3066 3.3066z"/>
  <path id="path624" style="fill:#ffffff" inkscape:connector-curvature="0" d="m435.98 138.91c1.8171 0 3.3066-1.4894 3.3066-3.3066 0-1.8171-1.4894-3.3066-3.3066-3.3066-1.8469 0-3.3066 1.4894-3.3066 3.3066 0 1.8171 1.4597 3.3066 3.3066 3.3066"/>
  <path id="path625" style="stroke:#000000;stroke-width:1.2482;fill:none" inkscape:connector-curvature="0" d="m435.98 138.91c1.8171 0 3.3066-1.4894 3.3066-3.3066 0-1.8171-1.4894-3.3066-3.3066-3.3066-1.8469 0-3.3066 1.4894-3.3066 3.3066 0 1.8171 1.4597 3.3066 3.3066 3.3066z"/>
  <path id="path626" style="fill:#ffffff" inkscape:connector-curvature="0" d="m432.38 130.81c1.8469 0 3.3066-1.4894 3.3066-3.3066 0-1.8171-1.4597-3.3066-3.3066-3.3066-1.8171 0-3.3066 1.4597-3.3066 3.3066 0 1.8171 1.4894 3.3066 3.3066 3.3066"/>
  <path id="path627" style="stroke:#000000;stroke-width:1.2482;fill:none" inkscape:connector-curvature="0" d="m432.38 130.81c1.8469 0 3.3066-1.4894 3.3066-3.3066 0-1.8171-1.4597-3.3066-3.3066-3.3066-1.8171 0-3.3066 1.4597-3.3066 3.3066 0 1.8171 1.4894 3.3066 3.3066 3.3066z"/>
  <path id="path628" style="fill:#ffffff" inkscape:connector-curvature="0" d="m426.3 125.18c1.8469 0 3.3066-1.4597 3.3066-3.3066 0-1.8171-1.4597-3.3066-3.3066-3.3066-1.8171 0-3.3066 1.4894-3.3066 3.3066 0 1.8469 1.4894 3.3066 3.3066 3.3066"/>
  <path id="path629" style="stroke:#000000;stroke-width:1.2482;fill:none" inkscape:connector-curvature="0" d="m426.3 125.18c1.8469 0 3.3066-1.4597 3.3066-3.3066 0-1.8171-1.4597-3.3066-3.3066-3.3066-1.8171 0-3.3066 1.4894-3.3066 3.3066 0 1.8469 1.4894 3.3066 3.3066 3.3066z"/>
  <path id="path630" style="fill:#ffffff" inkscape:connector-curvature="0" d="m418.97 121.6c1.8469 0 3.3066-1.4894 3.3066-3.3066 0-1.8171-1.4597-3.3066-3.3066-3.3066-1.8171 0-3.3066 1.4894-3.3066 3.3066 0 1.8171 1.4894 3.3066 3.3066 3.3066"/>
  <path id="path631" style="stroke:#000000;stroke-width:1.2482;fill:none" inkscape:connector-curvature="0" d="m418.97 121.6c1.8469 0 3.3066-1.4894 3.3066-3.3066 0-1.8171-1.4597-3.3066-3.3066-3.3066-1.8171 0-3.3066 1.4894-3.3066 3.3066 0 1.8171 1.4894 3.3066 3.3066 3.3066z"/>
  <path id="path632" style="fill:#ffffff" inkscape:connector-curvature="0" d="m410.63 119.7c1.8469 0 3.3066-1.4894 3.3066-3.3066 0-1.8171-1.4597-3.3066-3.3066-3.3066-1.8171 0-3.3066 1.4597-3.3066 3.3066 0 1.8171 1.4894 3.3066 3.3066 3.3066"/>
  <path id="path633" style="stroke:#000000;stroke-width:1.2482;fill:none" inkscape:connector-curvature="0" d="m410.63 119.7c1.8469 0 3.3066-1.4894 3.3066-3.3066 0-1.8171-1.4597-3.3066-3.3066-3.3066-1.8171 0-3.3066 1.4597-3.3066 3.3066 0 1.8171 1.4894 3.3066 3.3066 3.3066z"/>
  <path id="path634" style="fill:#ffffff" inkscape:connector-curvature="0" d="m403.01 119.07c1.8171 0 3.3066-1.4894 3.3066-3.3066 0-1.8171-1.4894-3.3066-3.3066-3.3066-1.8469 0-3.3066 1.4894-3.3066 3.3066 0 1.8171 1.4597 3.3066 3.3066 3.3066"/>
  <path id="path635" style="stroke:#000000;stroke-width:1.2482;fill:none" inkscape:connector-curvature="0" d="m403.01 119.07c1.8171 0 3.3066-1.4894 3.3066-3.3066 0-1.8171-1.4894-3.3066-3.3066-3.3066-1.8469 0-3.3066 1.4894-3.3066 3.3066 0 1.8171 1.4597 3.3066 3.3066 3.3066z"/>
  <path id="path636" style="fill:#ffffff" inkscape:connector-curvature="0" d="m396.07 118.15c1.8469 0 3.3066-1.4597 3.3066-3.3066 0-1.8171-1.4597-3.3066-3.3066-3.3066-1.8171 0-3.3066 1.4894-3.3066 3.3066 0 1.8469 1.4894 3.3066 3.3066 3.3066"/>
  <path id="path637" style="stroke:#000000;stroke-width:1.2482;fill:none" inkscape:connector-curvature="0" d="m396.07 118.15c1.8469 0 3.3066-1.4597 3.3066-3.3066 0-1.8171-1.4597-3.3066-3.3066-3.3066-1.8171 0-3.3066 1.4894-3.3066 3.3066 0 1.8469 1.4894 3.3066 3.3066 3.3066z"/>
  <path id="path638" style="fill:#ffffff" inkscape:connector-curvature="0" d="m400.54 145.23c1.8469 0 3.3066-1.4894 3.3066-3.3066 0-1.8171-1.4597-3.3066-3.3066-3.3066-1.8171 0-3.3066 1.4894-3.3066 3.3066 0 1.8171 1.4894 3.3066 3.3066 3.3066"/>
  <path id="path639" style="stroke:#000000;stroke-width:1.2482;fill:none" inkscape:connector-curvature="0" d="m400.54 145.23c1.8469 0 3.3066-1.4894 3.3066-3.3066 0-1.8171-1.4597-3.3066-3.3066-3.3066-1.8171 0-3.3066 1.4894-3.3066 3.3066 0 1.8171 1.4894 3.3066 3.3066 3.3066z"/>
  <path id="path640" style="fill:#ffffff" inkscape:connector-curvature="0" d="m402.26 138.82c1.8171 0 3.3066-1.4597 3.3066-3.3066 0-1.8171-1.4894-3.3066-3.3066-3.3066-1.8469 0-3.3066 1.4894-3.3066 3.3066 0 1.8469 1.4597 3.3066 3.3066 3.3066"/>
  <path id="path641" style="stroke:#000000;stroke-width:1.2482;fill:none" inkscape:connector-curvature="0" d="m402.26 138.82c1.8171 0 3.3066-1.4597 3.3066-3.3066 0-1.8171-1.4894-3.3066-3.3066-3.3066-1.8469 0-3.3066 1.4894-3.3066 3.3066 0 1.8469 1.4597 3.3066 3.3066 3.3066z"/>
  <path id="path642" style="fill:#ffffff" inkscape:connector-curvature="0" d="m374.47 117.67c1.8171 0 3.3066-1.4894 3.3066-3.3066 0-1.8469-1.4894-3.3066-3.3066-3.3066-1.8171 0-3.3066 1.4597-3.3066 3.3066 0 1.8171 1.4894 3.3066 3.3066 3.3066"/>
  <path id="path643" style="stroke:#000000;stroke-width:1.2482;fill:none" inkscape:connector-curvature="0" d="m374.47 117.67c1.8171 0 3.3066-1.4894 3.3066-3.3066 0-1.8469-1.4894-3.3066-3.3066-3.3066-1.8171 0-3.3066 1.4597-3.3066 3.3066 0 1.8171 1.4894 3.3066 3.3066 3.3066z"/>
  <path id="path644" style="fill:#ffffff" inkscape:connector-curvature="0" d="m358.29 116.78c1.8171 0 3.3066-1.4894 3.3066-3.3066 0-1.8469-1.4894-3.3066-3.3066-3.3066-1.8469 0-3.3364 1.4597-3.3364 3.3066 0 1.8171 1.4894 3.3066 3.3364 3.3066"/>
  <path id="path645" style="stroke:#000000;stroke-width:1.2482;fill:none" inkscape:connector-curvature="0" d="m358.29 116.78c1.8171 0 3.3066-1.4894 3.3066-3.3066 0-1.8469-1.4894-3.3066-3.3066-3.3066-1.8469 0-3.3364 1.4597-3.3364 3.3066 0 1.8171 1.4894 3.3066 3.3364 3.3066z"/>
  <path id="path646" style="fill:#ffffff" inkscape:connector-curvature="0" d="m354.39 116.6c1.8171 0 3.3066-1.4597 3.3066-3.3066 0-1.8171-1.4894-3.3066-3.3066-3.3066-1.8469 0-3.3066 1.4894-3.3066 3.3066 0 1.8469 1.4597 3.3066 3.3066 3.3066"/>
  <path id="path647" style="stroke:#000000;stroke-width:1.2482;fill:none" inkscape:connector-curvature="0" d="m354.39 116.6c1.8171 0 3.3066-1.4597 3.3066-3.3066 0-1.8171-1.4894-3.3066-3.3066-3.3066-1.8469 0-3.3066 1.4894-3.3066 3.3066 0 1.8469 1.4597 3.3066 3.3066 3.3066z"/>
  <path id="path648" style="fill:#ffffff" inkscape:connector-curvature="0" d="m333.36 145.32c1.8469 0 3.3066-1.4894 3.3066-3.3066 0-1.8469-1.4597-3.3364-3.3066-3.3364-1.8171 0-3.3066 1.4894-3.3066 3.3364 0 1.8171 1.4894 3.3066 3.3066 3.3066"/>
  <path id="path649" style="stroke:#000000;stroke-width:1.2482;fill:none" inkscape:connector-curvature="0" d="m333.36 145.32c1.8469 0 3.3066-1.4894 3.3066-3.3066 0-1.8469-1.4597-3.3364-3.3066-3.3364-1.8171 0-3.3066 1.4894-3.3066 3.3364 0 1.8171 1.4894 3.3066 3.3066 3.3066z"/>
  <path id="path650" style="fill:#ffffff" inkscape:connector-curvature="0" d="m332.41 137.39c1.8171 0 3.3066-1.4894 3.3066-3.3066 0-1.8171-1.4894-3.3066-3.3066-3.3066-1.8469 0-3.3066 1.4894-3.3066 3.3066 0 1.8171 1.4597 3.3066 3.3066 3.3066"/>
  <path id="path651" style="stroke:#000000;stroke-width:1.2482;fill:none" inkscape:connector-curvature="0" d="m332.41 137.39c1.8171 0 3.3066-1.4894 3.3066-3.3066 0-1.8171-1.4894-3.3066-3.3066-3.3066-1.8469 0-3.3066 1.4894-3.3066 3.3066 0 1.8171 1.4597 3.3066 3.3066 3.3066z"/>
  <path id="path652" style="fill:#ffffff" inkscape:connector-curvature="0" d="m334.73 129.74c1.8171 0 3.3066-1.4597 3.3066-3.3066 0-1.8171-1.4894-3.3066-3.3066-3.3066-1.8171 0-3.3066 1.4894-3.3066 3.3066 0 1.8469 1.4894 3.3066 3.3066 3.3066"/>
  <path id="path653" style="stroke:#000000;stroke-width:1.2482;fill:none" inkscape:connector-curvature="0" d="m334.73 129.74c1.8171 0 3.3066-1.4597 3.3066-3.3066 0-1.8171-1.4894-3.3066-3.3066-3.3066-1.8171 0-3.3066 1.4894-3.3066 3.3066 0 1.8469 1.4894 3.3066 3.3066 3.3066z"/>
  <path id="path654" style="fill:#ffffff" inkscape:connector-curvature="0" d="m349.27 117.34c1.8469 0 3.3066-1.4597 3.3066-3.3066 0-1.8171-1.4597-3.3066-3.3066-3.3066-1.8171 0-3.3066 1.4894-3.3066 3.3066 0 1.8469 1.4894 3.3066 3.3066 3.3066"/>
  <path id="path655" style="stroke:#000000;stroke-width:1.2482;fill:none" inkscape:connector-curvature="0" d="m349.27 117.34c1.8469 0 3.3066-1.4597 3.3066-3.3066 0-1.8171-1.4597-3.3066-3.3066-3.3066-1.8171 0-3.3066 1.4894-3.3066 3.3066 0 1.8469 1.4894 3.3066 3.3066 3.3066z"/>
  <path id="path656" style="fill:#ffffff" inkscape:connector-curvature="0" d="m343.79 119.61c1.8171 0 3.3066-1.4894 3.3066-3.3066 0-1.8171-1.4894-3.3066-3.3066-3.3066-1.8469 0-3.3066 1.4894-3.3066 3.3066 0 1.8171 1.4597 3.3066 3.3066 3.3066"/>
  <path id="path657" style="stroke:#000000;stroke-width:1.2482;fill:none" inkscape:connector-curvature="0" d="m343.79 119.61c1.8171 0 3.3066-1.4894 3.3066-3.3066 0-1.8171-1.4894-3.3066-3.3066-3.3066-1.8469 0-3.3066 1.4894-3.3066 3.3066 0 1.8171 1.4597 3.3066 3.3066 3.3066z"/>
  <path id="path658" style="fill:#ffffff" inkscape:connector-curvature="0" d="m338.51 124.05c1.8171 0 3.3066-1.4597 3.3066-3.3066 0-1.8171-1.4894-3.3066-3.3066-3.3066-1.8171 0-3.3066 1.4894-3.3066 3.3066 0 1.8469 1.4894 3.3066 3.3066 3.3066"/>
  <path id="path659" style="stroke:#000000;stroke-width:1.2482;fill:none" inkscape:connector-curvature="0" d="m338.51 124.05c1.8171 0 3.3066-1.4597 3.3066-3.3066 0-1.8171-1.4894-3.3066-3.3066-3.3066-1.8171 0-3.3066 1.4894-3.3066 3.3066 0 1.8469 1.4894 3.3066 3.3066 3.3066z"/>
  <path id="path660" style="fill:#ffffff" inkscape:connector-curvature="0" d="m367.29 122.11c1.8171 0 3.3066-1.4894 3.3066-3.3066 0-1.8171-1.4894-3.3066-3.3066-3.3066-1.8171 0-3.3066 1.4894-3.3066 3.3066 0 1.8171 1.4894 3.3066 3.3066 3.3066"/>
  <path id="path661" style="stroke:#000000;stroke-width:1.2482;fill:none" inkscape:connector-curvature="0" d="m367.29 122.11c1.8171 0 3.3066-1.4894 3.3066-3.3066 0-1.8171-1.4894-3.3066-3.3066-3.3066-1.8171 0-3.3066 1.4894-3.3066 3.3066 0 1.8171 1.4894 3.3066 3.3066 3.3066z"/>
  <path id="path662" style="fill:#ffffff" inkscape:connector-curvature="0" d="m367.29 128.34c1.8171 0 3.3066-1.4597 3.3066-3.3066 0-1.8171-1.4894-3.3066-3.3066-3.3066-1.8171 0-3.3066 1.4894-3.3066 3.3066 0 1.8469 1.4894 3.3066 3.3066 3.3066"/>
  <path id="path663" style="stroke:#000000;stroke-width:1.2482;fill:none" inkscape:connector-curvature="0" d="m367.29 128.34c1.8171 0 3.3066-1.4597 3.3066-3.3066 0-1.8171-1.4894-3.3066-3.3066-3.3066-1.8171 0-3.3066 1.4894-3.3066 3.3066 0 1.8469 1.4894 3.3066 3.3066 3.3066z"/>
  <path id="path664" style="fill:#ffffff" inkscape:connector-curvature="0" d="m367.29 135.04c1.8171 0 3.3066-1.4597 3.3066-3.3066 0-1.8171-1.4894-3.3066-3.3066-3.3066-1.8171 0-3.3066 1.4894-3.3066 3.3066 0 1.8469 1.4894 3.3066 3.3066 3.3066"/>
  <path id="path665" style="stroke:#000000;stroke-width:1.2482;fill:none" inkscape:connector-curvature="0" d="m367.29 135.04c1.8171 0 3.3066-1.4597 3.3066-3.3066 0-1.8171-1.4894-3.3066-3.3066-3.3066-1.8171 0-3.3066 1.4894-3.3066 3.3066 0 1.8469 1.4894 3.3066 3.3066 3.3066z"/>
  <path id="path666" style="fill:#ffffff" inkscape:connector-curvature="0" d="m378.76 116.81c1.8171 0 3.3066-1.4894 3.3066-3.3066 0-1.8171-1.4894-3.3066-3.3066-3.3066-1.8469 0-3.3066 1.4894-3.3066 3.3066 0 1.8171 1.4597 3.3066 3.3066 3.3066"/>
  <path id="path667" style="stroke:#000000;stroke-width:1.2482;fill:none" inkscape:connector-curvature="0" d="m378.76 116.81c1.8171 0 3.3066-1.4894 3.3066-3.3066 0-1.8171-1.4894-3.3066-3.3066-3.3066-1.8469 0-3.3066 1.4894-3.3066 3.3066 0 1.8171 1.4597 3.3066 3.3066 3.3066z"/>
  <path id="path668" style="fill:#ffffff" inkscape:connector-curvature="0" d="m383.29 115.89c1.8171 0 3.3066-1.4894 3.3066-3.3066 0-1.8469-1.4894-3.3364-3.3066-3.3364-1.8469 0-3.3066 1.4894-3.3066 3.3364 0 1.8171 1.4597 3.3066 3.3066 3.3066"/>
  <path id="path669" style="stroke:#000000;stroke-width:1.2482;fill:none" inkscape:connector-curvature="0" d="m383.29 115.89c1.8171 0 3.3066-1.4894 3.3066-3.3066 0-1.8469-1.4894-3.3364-3.3066-3.3364-1.8469 0-3.3066 1.4894-3.3066 3.3364 0 1.8171 1.4597 3.3066 3.3066 3.3066z"/>
  <path id="path670" style="fill:#ffffff" inkscape:connector-curvature="0" d="m388.38 116.69c1.8171 0 3.3066-1.4894 3.3066-3.3066 0-1.8171-1.4894-3.3066-3.3066-3.3066-1.8171 0-3.3066 1.4894-3.3066 3.3066 0 1.8171 1.4894 3.3066 3.3066 3.3066"/>
  <path id="path671" style="stroke:#000000;stroke-width:1.2482;fill:none" inkscape:connector-curvature="0" d="m388.38 116.69c1.8171 0 3.3066-1.4894 3.3066-3.3066 0-1.8171-1.4894-3.3066-3.3066-3.3066-1.8171 0-3.3066 1.4894-3.3066 3.3066 0 1.8171 1.4894 3.3066 3.3066 3.3066z"/>
  <path id="path672" style="fill:#ffffff" inkscape:connector-curvature="0" d="m401.16 130.72c1.8171 0 3.3066-1.4894 3.3066-3.3066 0-1.8171-1.4894-3.3066-3.3066-3.3066-1.8171 0-3.3066 1.4894-3.3066 3.3066 0 1.8171 1.4894 3.3066 3.3066 3.3066"/>
  <path id="path673" style="stroke:#000000;stroke-width:1.2482;fill:none" inkscape:connector-curvature="0" d="m401.16 130.72c1.8171 0 3.3066-1.4894 3.3066-3.3066 0-1.8171-1.4894-3.3066-3.3066-3.3066-1.8171 0-3.3066 1.4894-3.3066 3.3066 0 1.8171 1.4894 3.3066 3.3066 3.3066z"/>
  <path id="path674" style="fill:#ffffff" inkscape:connector-curvature="0" d="m393.54 119.67c1.8171 0 3.3066-1.4894 3.3066-3.3364 0-1.8171-1.4894-3.3066-3.3066-3.3066-1.8469 0-3.3066 1.4894-3.3066 3.3066 0 1.8469 1.4597 3.3364 3.3066 3.3364"/>
  <path id="path675" style="stroke:#000000;stroke-width:1.2482;fill:none" inkscape:connector-curvature="0" d="m393.54 119.67c1.8171 0 3.3066-1.4894 3.3066-3.3364 0-1.8171-1.4894-3.3066-3.3066-3.3066-1.8469 0-3.3066 1.4894-3.3066 3.3066 0 1.8469 1.4597 3.3364 3.3066 3.3364z"/>
  <path id="path676" style="fill:#ffffff" inkscape:connector-curvature="0" d="m398.21 124.17c1.8171 0 3.3066-1.4597 3.3066-3.3066 0-1.8171-1.4894-3.3066-3.3066-3.3066-1.8469 0-3.3066 1.4894-3.3066 3.3066 0 1.8469 1.4597 3.3066 3.3066 3.3066"/>
  <path id="path677" style="stroke:#000000;stroke-width:1.2482;fill:none" inkscape:connector-curvature="0" d="m398.21 124.17c1.8171 0 3.3066-1.4597 3.3066-3.3066 0-1.8171-1.4894-3.3066-3.3066-3.3066-1.8469 0-3.3066 1.4894-3.3066 3.3066 0 1.8469 1.4597 3.3066 3.3066 3.3066z"/>
  <path id="path678" style="fill:#ffffff" inkscape:connector-curvature="0" d="m367.08 173.71-8.7282 4.379 7.8643 4.945 9.2942-4.6769-8.4303-4.6471"/>
  <path id="path679" style="stroke:#000000;stroke-width:.62259;fill:none" inkscape:connector-curvature="0" d="m367.08 173.71-8.7282 4.379 7.8643 4.945 9.2942-4.6769-8.4303-4.6471"/>
  <path id="path680" style="fill:#ffffff" inkscape:connector-curvature="0" d="m347.99 174.63-13.107 2.0257s-0.14895 7.0004 0.47662 8.7282l13.405-1.8767s0.62557-6.5536-0.77451-8.8771"/>
  <path id="path681" style="stroke:#000000;stroke-width:.62259;fill:none" inkscape:connector-curvature="0" d="m347.99 174.63-13.107 2.0257s-0.14895 7.0004 0.47662 8.7282l13.405-1.8767s0.62557-6.5536-0.77451-8.8771z"/>
  <path id="path682" style="fill:#009933" inkscape:connector-curvature="0" d="m346.53 177.13s-7.8941 0.71494-9.8602 1.4597l0.0894 4.7662s5.2131-0.92346 9.9793-1.3405l-0.20852-4.8854"/>
  <path id="path683" style="stroke:#000000;stroke-width:.62259;fill:none" inkscape:connector-curvature="0" d="m346.53 177.13s-7.8941 0.71494-9.8602 1.4597l0.0894 4.7662s5.2131-0.92346 9.9793-1.3405l-0.20852-4.8854"/>
  <path id="path684" style="fill:#ffffff" inkscape:connector-curvature="0" d="m385.34 175.02 13.077 2.0256s0.17874 7.0004-0.44683 8.7282l-13.405-1.8767s-0.62557-6.5536 0.77451-8.8771"/>
  <path id="path685" style="stroke:#000000;stroke-width:.62259;fill:none" inkscape:connector-curvature="0" d="m385.34 175.02 13.077 2.0256s0.17874 7.0004-0.44683 8.7282l-13.405-1.8767s-0.62557-6.5536 0.77451-8.8771z"/>
  <path id="path686" style="fill:#009933" inkscape:connector-curvature="0" d="m386.8 177.49s7.8941 0.74472 9.8602 1.4597l-0.0894 4.796s-5.2131-0.95325-9.9793-1.3703l0.20852-4.8854"/>
  <path id="path687" style="stroke:#000000;stroke-width:.62259;fill:none" inkscape:connector-curvature="0" d="m386.8 177.49s7.8941 0.74472 9.8602 1.4597l-0.0894 4.796s-5.2131-0.95325-9.9793-1.3703l0.20852-4.8854"/>
  <path id="path688" style="stroke:#000000;stroke-width:.62259;fill:none" inkscape:connector-curvature="0" d="m315.25 180.86s45.935-17.039 104.35 1.4597m-102.47 8.3707s44.445-16.622 99.227 0.74473m-99.019-11.201 8.9367 2.5916-6.2557 6.6727"/>
  <path id="path689" style="fill:#ff0000" inkscape:connector-curvature="0" d="m317.54 188.24 5.0939-4.2598-5.8386-1.1618s0.80431 0.92346 0.62557 1.7278c-0.14894 0.83409 0.0596 2.9789 0.11916 3.6938"/>
  <path id="path690" style="stroke:#000000;stroke-width:.62259;fill:none" inkscape:connector-curvature="0" d="m317.54 188.24 5.0939-4.2598-5.8386-1.1618s0.80431 0.92346 0.62557 1.7278c-0.14894 0.83409 0.0596 2.9789 0.11916 3.6938z"/>
  <path id="path691" style="stroke:#000000;stroke-width:.62259;fill:none" inkscape:connector-curvature="0" d="m418.62 181.96-9.5027 1.698 6.4046 7.5068"/>
  <path id="path692" style="fill:#ff0000" inkscape:connector-curvature="0" d="m415.82 188.51-3.5747-3.7534 5.1237-0.47662s-1.4001 0.95325-1.4001 1.7278c0 0.77452 0.17874 1.8767-0.14894 2.5023"/>
  <path id="path693" style="stroke:#000000;stroke-width:.62259;fill:none" inkscape:connector-curvature="0" d="m415.82 188.51-3.5747-3.7534 5.1237-0.47662s-1.4001 0.95325-1.4001 1.7278c0 0.77452 0.17874 1.8767-0.14894 2.5023z"/>
  <path id="path694" style="stroke:#000000;stroke-width:.62259;fill:none" inkscape:connector-curvature="0" d="m328.98 180.88c0.80431 0 1.4597-0.50641 1.4597-1.1618 0-0.65536-0.65535-1.1916-1.4597-1.1916-0.83409 0-1.4894 0.5362-1.4894 1.1916 0 0.65536 0.65536 1.1618 1.4894 1.1618zm25.529-2.8895c0.83409 0 1.4894-0.5362 1.4894-1.1916 0-0.65536-0.65536-1.1618-1.4894-1.1618-0.80431 0-1.4597 0.50641-1.4597 1.1618 0 0.65536 0.65535 1.1916 1.4597 1.1916zm0 4.1407c0.83409 0 1.4894-0.50641 1.4894-1.1618 0-0.65536-0.65536-1.1916-1.4894-1.1916-0.80431 0-1.4597 0.5362-1.4597 1.1916 0 0.65536 0.65535 1.1618 1.4597 1.1618zm25.172-3.9322c0.8043 0 1.4597-0.5362 1.4597-1.1916 0-0.65535-0.65536-1.1618-1.4597-1.1618-0.8043 0-1.4597 0.50642-1.4597 1.1618 0 0.65536 0.65536 1.1916 1.4597 1.1916zm24.933 4.5577c0.8341 0 1.4894-0.5362 1.4894-1.1618 0-0.65536-0.65535-1.1916-1.4894-1.1916-0.8043 0-1.4597 0.5362-1.4597 1.1916 0 0.62557 0.65536 1.1618 1.4597 1.1618zm-0.38725 3.3364c0.8043 0 1.4597-0.5362 1.4597-1.1916 0-0.62557-0.65536-1.1618-1.4597-1.1618-0.83409 0-1.4894 0.5362-1.4894 1.1618 0 0.65536 0.65536 1.1916 1.4894 1.1916zm-24.546-3.7534c0.8043 0 1.4597-0.5362 1.4597-1.1618 0-0.65535-0.65536-1.1916-1.4597-1.1916-0.8043 0-1.4597 0.53621-1.4597 1.1916 0 0.62557 0.65536 1.1618 1.4597 1.1618zm-49.48 3.7534c0.80431 0 1.4597-0.5362 1.4597-1.1916 0-0.62557-0.65535-1.1618-1.4597-1.1618-0.8043 0-1.4597 0.5362-1.4597 1.1618 0 0.65536 0.65536 1.1916 1.4597 1.1916z"/>
  <path id="path695" style="fill:#ffcc00" inkscape:connector-curvature="0" d="m314.42 167.45s0.20853 8.9367 6.0174 7.6856c5.8386-1.2511 5.2131-8.5197 5.6301-8.9367 0.41705-0.41705 1.0426-0.41705 1.0426-0.41705s0.8043 7.0898 6.2259 6.2557c5.3918-0.83409 5.1833-9.5623 4.5875-11.022l1.2214-0.41705s2.0852 10.188 8.3111 8.7282c6.2557-1.4597 5.6301-7.8941 5.6301-7.8941h0.47663s1.4001 6.8515 6.3748 6.4344c5.0046-0.41705 6.0472-2.0852 5.4216-8.9367l3.3066-0.62557s-1.2511 9.9793 4.796 9.7708c6.0174-0.20852 6.2259-4.9748 6.643-5.8088h0.92346s0.32768 7.06 5.3322 7.06c4.9748 0 6.0174-6.0472 6.0174-8.3111l4.8854 0.20852s-5.0939 9.3538 2.3831 10.605c7.5068 1.2214 7.6856-6.0472 7.6856-6.0472h1.4597s-0.20853 9.3538 3.9619 9.5623c4.1407 0.20852 6.643-1.2511 7.06-8.1026l2.2938 0.83409s-1.9959 11.082-9.7708 9.1452c-4.1705-1.0426-5.4216-5.8089-5.2131-7.06 0 0-2.8895 5.1833-8.5196 3.5151-5.6003-1.6384-4.9748-5.6003-4.9748-6.8515 0 0-3.3959 6.1961-8.1026 4.796-4.1705-1.2511-5.8386-2.7108-5.8386-5.6301 0 0-2.0852 4.796-6.2259 4.5875-4.1705-0.20852-6.2259-2.7108-6.4642-5.0046 0 0-0.8043 4.4684-6.4344 4.796-3.7534 0.20852-5.8088-1.6682-6.6429-4.1705 0 0-1.0724 4.5279-6.4642 5.2131-3.3066 0.41705-6.6429-1.4597-7.477-4.5875 0 0-0.83409 6.0174-6.2259 6.8515-5.4216 0.83409-6.6727-2.8895-6.6727-2.8895s-1.0128 4.7662-5.3918 5.8089c-4.379 1.0426-7.2685-0.83409-8.3111-5.1833-1.0426-4.379-0.62557-6.2557-0.62557-6.2557l1.6682 2.2938"/>
  <path id="path696" style="stroke:#000000;stroke-width:.81026;fill:none" inkscape:connector-curvature="0" d="m314.42 167.45s0.20853 8.9367 6.0174 7.6856c5.8386-1.2511 5.2131-8.5197 5.6301-8.9367 0.41705-0.41705 1.0426-0.41705 1.0426-0.41705s0.8043 7.0898 6.2259 6.2557c5.3918-0.83409 5.1833-9.5623 4.5875-11.022l1.2214-0.41705s2.0852 10.188 8.3111 8.7282c6.2557-1.4597 5.6301-7.8941 5.6301-7.8941h0.47663s1.4001 6.8515 6.3748 6.4344c5.0046-0.41705 6.0472-2.0852 5.4216-8.9367l3.3066-0.62557s-1.2511 9.9793 4.796 9.7708c6.0174-0.20852 6.2259-4.9748 6.643-5.8088h0.92346s0.32768 7.06 5.3322 7.06c4.9748 0 6.0174-6.0472 6.0174-8.3111l4.8854 0.20852s-5.0939 9.3538 2.3831 10.605c7.5068 1.2214 7.6856-6.0472 7.6856-6.0472h1.4597s-0.20853 9.3538 3.9619 9.5623c4.1407 0.20852 6.643-1.2511 7.06-8.1026l2.2938 0.83409s-1.9959 11.082-9.7708 9.1452c-4.1705-1.0426-5.4216-5.8089-5.2131-7.06 0 0-2.8895 5.1833-8.5196 3.5151-5.6003-1.6384-4.9748-5.6003-4.9748-6.8515 0 0-3.3959 6.1961-8.1026 4.796-4.1705-1.2511-5.8386-2.7108-5.8386-5.6301 0 0-2.0852 4.796-6.2259 4.5875-4.1705-0.20852-6.2259-2.7108-6.4642-5.0046 0 0-0.8043 4.4684-6.4344 4.796-3.7534 0.20852-5.8088-1.6682-6.6429-4.1705 0 0-1.0724 4.5279-6.4642 5.2131-3.3066 0.41705-6.6429-1.4597-7.477-4.5875 0 0-0.83409 6.0174-6.2259 6.8515-5.4216 0.83409-6.6727-2.8895-6.6727-2.8895s-1.0128 4.7662-5.3918 5.8089c-4.379 1.0426-7.2685-0.83409-8.3111-5.1833-1.0426-4.379-0.62557-6.2557-0.62557-6.2557l1.6682 2.2938z"/>
  <path id="path697" style="fill:#ffcc00" inkscape:connector-curvature="0" d="m326.48 167.84c1.132 0 2.0554-0.92346 2.0554-2.0554 0-1.132-0.92346-2.0554-2.0554-2.0554-1.132 0-2.0554 0.92346-2.0554 2.0554 0 1.132 0.92346 2.0554 2.0554 2.0554"/>
  <path id="path698" style="stroke:#000000;stroke-width:.81026;fill:none" inkscape:connector-curvature="0" d="m326.48 167.84c1.132 0 2.0554-0.92346 2.0554-2.0554 0-1.132-0.92346-2.0554-2.0554-2.0554-1.132 0-2.0554 0.92346-2.0554 2.0554 0 1.132 0.92346 2.0554 2.0554 2.0554z"/>
  <path id="path699" style="fill:#ffcc00" inkscape:connector-curvature="0" d="m353.56 163.52c1.132 0 2.0554-0.92346 2.0554-2.0554 0-1.1618-0.92346-2.0554-2.0554-2.0554-1.132 0-2.0554 0.89367-2.0554 2.0554 0 1.132 0.92346 2.0554 2.0554 2.0554"/>
  <path id="path700" style="stroke:#000000;stroke-width:.81026;fill:none" inkscape:connector-curvature="0" d="m353.56 163.52c1.132 0 2.0554-0.92346 2.0554-2.0554 0-1.1618-0.92346-2.0554-2.0554-2.0554-1.132 0-2.0554 0.89367-2.0554 2.0554 0 1.132 0.92346 2.0554 2.0554 2.0554z"/>
  <path id="path701" style="fill:#ffcc00" inkscape:connector-curvature="0" d="m381.02 164.32c1.132 0 2.0554-0.92346 2.0554-2.0554 0-1.1618-0.92346-2.0852-2.0554-2.0852-1.132 0-2.0554 0.92346-2.0554 2.0852 0 1.132 0.92345 2.0554 2.0554 2.0554"/>
  <path id="path702" style="stroke:#000000;stroke-width:.81026;fill:none" inkscape:connector-curvature="0" d="m381.02 164.32c1.132 0 2.0554-0.92346 2.0554-2.0554 0-1.1618-0.92346-2.0852-2.0554-2.0852-1.132 0-2.0554 0.92346-2.0554 2.0852 0 1.132 0.92345 2.0554 2.0554 2.0554z"/>
  <path id="path703" style="fill:#ffcc00" inkscape:connector-curvature="0" d="m408.28 168.7c1.132 0 2.0554-0.92346 2.0554-2.0554 0-1.1618-0.92346-2.0554-2.0554-2.0554-1.132 0-2.0554 0.89367-2.0554 2.0554 0 1.132 0.92346 2.0554 2.0554 2.0554"/>
  <path id="path704" style="stroke:#000000;stroke-width:.81026;fill:none" inkscape:connector-curvature="0" d="m408.28 168.7c1.132 0 2.0554-0.92346 2.0554-2.0554 0-1.1618-0.92346-2.0554-2.0554-2.0554-1.132 0-2.0554 0.89367-2.0554 2.0554 0 1.132 0.92346 2.0554 2.0554 2.0554z"/>
  <path id="path705" style="fill:#ffcc00" inkscape:connector-curvature="0" d="m366.07 161.22h-1.8767c-0.44683 1.8767-4.4386 3.0385-4.4386 3.0385-0.44683-1.4894 0.56599-3.6045 0.56599-3.6045-4.6173-1.1618-4.6173-2.8002-4.6173-2.8002 0.71493-1.549 4.9152-1.7873 4.9152-1.7873-1.1022-1.4001-0.86388-3.664-0.86388-3.664 2.83 0.14894 5.1535 2.9491 5.1535 2.9491s-2.8002-1.4001-2.5023-6.3748c0.29789-4.9748 1.5788-0.0894 2.5023 0.92346 0 0 0-5.362 2.264-5.9876h0.23831c2.264 0.62557 2.264 5.9876 2.264 5.9876 0.92346-1.0128 2.4725-0.92346 2.4725-0.92346 0.32768 4.9748-2.4725 6.3748-2.4725 6.3748s2.3235-2.8002 5.1237-2.9491c2.8002-0.14895 0.23831 2.264-0.8341 3.664 0 0 4.2002 0.23831 4.8854 1.7873 0 0 0 1.6384-4.5875 2.8002 0 0 1.0128 2.115 0.53621 3.6045 0 0-3.9619-1.1618-4.4386-3.0385h-4.2896"/>
  <path id="path706" style="stroke:#000000;stroke-width:.81026;fill:none" inkscape:connector-curvature="0" d="m366.07 161.22h-1.8767c-0.44683 1.8767-4.4386 3.0385-4.4386 3.0385-0.44683-1.4894 0.56599-3.6045 0.56599-3.6045-4.6173-1.1618-4.6173-2.8002-4.6173-2.8002 0.71493-1.549 4.9152-1.7873 4.9152-1.7873-1.1022-1.4001-0.86388-3.664-0.86388-3.664 2.83 0.14894 5.1535 2.9491 5.1535 2.9491s-2.8002-1.4001-2.5023-6.3748c0.29789-4.9748 1.5788-0.0894 2.5023 0.92346 0 0 0-5.362 2.264-5.9876h0.23831c2.264 0.62557 2.264 5.9876 2.264 5.9876 0.92346-1.0128 2.4725-0.92346 2.4725-0.92346 0.32768 4.9748-2.4725 6.3748-2.4725 6.3748s2.3235-2.8002 5.1237-2.9491c2.8002-0.14895 0.23831 2.264-0.8341 3.664 0 0 4.2002 0.23831 4.8854 1.7873 0 0 0 1.6384-4.5875 2.8002 0 0 1.0128 2.115 0.53621 3.6045 0 0-3.9619-1.1618-4.4386-3.0385h-4.2896z"/>
  <path id="path707" style="fill:#ffffff" inkscape:connector-curvature="0" d="m367.14 162.27c2.0852 0 3.7832-1.6682 3.7832-3.7534s-1.698-3.7534-3.7832-3.7534-3.7534 1.6682-3.7534 3.7534 1.6682 3.7534 3.7534 3.7534"/>
  <path id="path708" style="stroke:#000000;stroke-width:.50046;fill:none" inkscape:connector-curvature="0" d="m367.14 162.27c2.0852 0 3.7832-1.6682 3.7832-3.7534s-1.698-3.7534-3.7832-3.7534-3.7534 1.6682-3.7534 3.7534 1.6682 3.7534 3.7534 3.7534z"/>
  <path id="path709" style="fill:#ffffff" inkscape:connector-curvature="0" d="m367.14 160.57c1.132 0 2.0554-0.92346 2.0554-2.0554 0-1.132-0.92346-2.0554-2.0554-2.0554-1.132 0-2.0554 0.92346-2.0554 2.0554 0 1.132 0.92346 2.0554 2.0554 2.0554"/>
  <path id="path710" style="stroke:#000000;stroke-width:.31278;fill:none" inkscape:connector-curvature="0" d="m367.14 160.57c1.132 0 2.0554-0.92346 2.0554-2.0554 0-1.132-0.92346-2.0554-2.0554-2.0554-1.132 0-2.0554 0.92346-2.0554 2.0554 0 1.132 0.92346 2.0554 2.0554 2.0554z"/>
  <path id="path711" style="fill:#ffcc00" inkscape:connector-curvature="0" d="m395.71 163.67 1.8171 0.38726c0.0596 1.9363 3.7236 3.9024 3.7236 3.9024 0.74472-1.3405 0.20852-3.6045 0.20852-3.6045 4.7364-0.17874 5.0939-1.7873 5.0939-1.7873-0.35747-1.6682-4.4386-2.8002-4.4386-2.8002 1.3703-1.132 1.6384-3.3959 1.6384-3.3959-2.8002-0.41705-5.6599 1.8171-5.6599 1.8171s3.0385-0.77452 3.7832-5.7195c0.74472-4.945-1.5192-0.41705-2.6512 0.38725 0 0 1.132-5.2726-0.92346-6.345l-0.23831-0.0596c-2.3533 0.14894-3.4853 5.3918-3.4853 5.3918-0.68515-1.1916-2.2342-1.4299-2.2342-1.4299-1.3405 4.796 1.1022 6.7621 1.1022 6.7621s-1.698-3.2172-4.4088-3.9619c-2.7108-0.74472-0.71494 2.1448 0.0596 3.7534 0 0-4.1705-0.65536-5.1833 0.71493 0 0-0.32768 1.6086 3.9024 3.7236 0 0-1.4299 1.8469-1.2809 3.3959 0 0 4.1407-0.32768 4.9748-2.0554l1.8469 0.41705 2.3533 0.50641"/>
  <path id="path712" style="stroke:#000000;stroke-width:.81026;fill:none" inkscape:connector-curvature="0" d="m395.71 163.67 1.8171 0.38726c0.0596 1.9363 3.7236 3.9024 3.7236 3.9024 0.74472-1.3405 0.20852-3.6045 0.20852-3.6045 4.7364-0.17874 5.0939-1.7873 5.0939-1.7873-0.35747-1.6682-4.4386-2.8002-4.4386-2.8002 1.3703-1.132 1.6384-3.3959 1.6384-3.3959-2.8002-0.41705-5.6599 1.8171-5.6599 1.8171s3.0385-0.77452 3.7832-5.7195c0.74472-4.945-1.5192-0.41705-2.6512 0.38725 0 0 1.132-5.2726-0.92346-6.345l-0.23831-0.0596c-2.3533 0.14894-3.4853 5.3918-3.4853 5.3918-0.68515-1.1916-2.2342-1.4299-2.2342-1.4299-1.3405 4.796 1.1022 6.7621 1.1022 6.7621s-1.698-3.2172-4.4088-3.9619c-2.7108-0.74472-0.71494 2.1448 0.0596 3.7534 0 0-4.1705-0.65536-5.1833 0.71493 0 0-0.32768 1.6086 3.9024 3.7236 0 0-1.4299 1.8469-1.2809 3.3959 0 0 4.1407-0.32768 4.9748-2.0554l1.8469 0.41705 2.3533 0.50641"/>
  <path id="path713" style="fill:#ffffff" inkscape:connector-curvature="0" d="m394.43 164.47c-2.0257-0.44683-3.3066-2.4427-2.8895-4.4684 0.44684-2.0256 2.4427-3.3364 4.4981-2.8895 2.0256 0.44684 3.3066 2.4427 2.8895 4.4684-0.44684 2.0256-2.4427 3.3364-4.4981 2.8895"/>
  <path id="path714" style="stroke:#000000;stroke-width:.50046;fill:none" inkscape:connector-curvature="0" d="m394.43 164.47c-2.0257-0.44683-3.3066-2.4427-2.8895-4.4684 0.44684-2.0256 2.4427-3.3364 4.4981-2.8895 2.0256 0.44684 3.3066 2.4427 2.8895 4.4684-0.44684 2.0256-2.4427 3.3364-4.4981 2.8895z"/>
  <path id="path715" style="fill:#ffffff" inkscape:connector-curvature="0" d="m394.82 162.8c-1.132-0.23831-1.8469-1.3405-1.5788-2.4427 0.23831-1.1022 1.3107-1.8171 2.4427-1.5788 1.1022 0.23831 1.8171 1.3405 1.5788 2.4427-0.23831 1.1022-1.3405 1.8171-2.4427 1.5788"/>
  <path id="path716" style="stroke:#000000;stroke-width:.31278;fill:none" inkscape:connector-curvature="0" d="m394.82 162.8c-1.132-0.23831-1.8469-1.3405-1.5788-2.4427 0.23831-1.1022 1.3107-1.8171 2.4427-1.5788 1.1022 0.23831 1.8171 1.3405 1.5788 2.4427-0.23831 1.1022-1.3405 1.8171-2.4427 1.5788z"/>
  <path id="path717" style="fill:#ffcc00" inkscape:connector-curvature="0" d="m337.62 163.28-1.8469 0.23832c-0.23832 1.9363-4.0215 3.6045-4.0215 3.6045-0.65536-1.4001 0.0596-3.6045 0.0596-3.6045-4.7067-0.56599-4.9152-2.1746-4.9152-2.1746 0.47663-1.6384 4.6173-2.4427 4.6173-2.4427-1.2511-1.2511-1.3107-3.5151-1.3107-3.5151 2.8002-0.20852 5.4812 2.264 5.4812 2.264s-2.9491-1.0128-3.3066-6.0174c-0.35747-5.0046 1.5192-0.26811 2.5916 0.59578 0 0-0.71493-5.3322 1.4597-6.2259l0.20853-0.0298c2.3235 0.29789 3.0385 5.6301 3.0385 5.6301 0.80431-1.132 2.3533-1.2511 2.3533-1.2511 0.95324 4.9152-1.6384 6.6727-1.6384 6.6727s1.9661-3.098 4.7067-3.6045c2.7406-0.50642 0.5362 2.2044-0.35747 3.7236 0 0 4.2002-0.32768 5.0939 1.132 0 0 0.23832 1.6384-4.1705 3.396 0 0 1.2809 1.9363 1.0128 3.4853 0 0-4.1109-0.62557-4.8258-2.4427l-1.8469 0.2681-2.3831 0.29789"/>
  <path id="path718" style="stroke:#000000;stroke-width:.81026;fill:none" inkscape:connector-curvature="0" d="m337.62 163.28-1.8469 0.23832c-0.23832 1.9363-4.0215 3.6045-4.0215 3.6045-0.65536-1.4001 0.0596-3.6045 0.0596-3.6045-4.7067-0.56599-4.9152-2.1746-4.9152-2.1746 0.47663-1.6384 4.6173-2.4427 4.6173-2.4427-1.2511-1.2511-1.3107-3.5151-1.3107-3.5151 2.8002-0.20852 5.4812 2.264 5.4812 2.264s-2.9491-1.0128-3.3066-6.0174c-0.35747-5.0046 1.5192-0.26811 2.5916 0.59578 0 0-0.71493-5.3322 1.4597-6.2259l0.20853-0.0298c2.3235 0.29789 3.0385 5.6301 3.0385 5.6301 0.80431-1.132 2.3533-1.2511 2.3533-1.2511 0.95324 4.9152-1.6384 6.6727-1.6384 6.6727s1.9661-3.098 4.7067-3.6045c2.7406-0.50642 0.5362 2.2044-0.35747 3.7236 0 0 4.2002-0.32768 5.0939 1.132 0 0 0.23832 1.6384-4.1705 3.396 0 0 1.2809 1.9363 1.0128 3.4853 0 0-4.1109-0.62557-4.8258-2.4427l-1.8469 0.2681-2.3831 0.29789"/>
  <path id="path719" style="fill:#ffffff" inkscape:connector-curvature="0" d="m338.81 164.2c2.0554-0.2681 3.5151-2.1746 3.247-4.23s-2.1746-3.5151-4.23-3.247c-2.0852 0.29789-3.5151 2.1746-3.247 4.23 0.2681 2.0852 2.1746 3.5151 4.23 3.247"/>
  <path id="path720" style="stroke:#000000;stroke-width:.50046;fill:none" inkscape:connector-curvature="0" d="m338.81 164.2c2.0554-0.2681 3.5151-2.1746 3.247-4.23s-2.1746-3.5151-4.23-3.247c-2.0852 0.29789-3.5151 2.1746-3.247 4.23 0.2681 2.0852 2.1746 3.5151 4.23 3.247z"/>
  <path id="path721" style="fill:#ffffff" inkscape:connector-curvature="0" d="m338.57 162.51c1.132-0.14894 1.9363-1.1916 1.7873-2.3235-0.14894-1.1022-1.1916-1.9065-2.3235-1.7576-1.132 0.14894-1.9065 1.1916-1.7576 2.3235 0.14894 1.132 1.1916 1.9065 2.2938 1.7576"/>
  <path id="path722" style="stroke:#000000;stroke-width:.31278;fill:none" inkscape:connector-curvature="0" d="m338.57 162.51c1.132-0.14894 1.9363-1.1916 1.7873-2.3235-0.14894-1.1022-1.1916-1.9065-2.3235-1.7576-1.132 0.14894-1.9065 1.1916-1.7576 2.3235 0.14894 1.132 1.1916 1.9065 2.2938 1.7576z"/>
  <path id="path723" style="fill:#ffcc00" inkscape:connector-curvature="0" d="m421.8 171.29s-0.92346-2.4725-3.0087-1.5788c-2.0852 0.89367-1.8767 1.2214-3.7534 1.1022-1.8767-0.11915-0.71493-2.2342 0.20853-3.1874 0 0-2.9789-1.132-3.6045-3.7534 0 0 1.5788-1.8469 5.362-1.132 0 0-0.11916-1.9065 0.41705-2.7108 0 0 4.0513 1.2511 4.0811 3.5151 0 0-1.2214-4.4386 0.92346-7.6856 0 0 1.9065 0.8341 1.7873 2.8598 0 0 0.86388-4.1705 6.494-3.0683 0 0-3.0385 2.7108-3.1874 3.9619-0.14895 1.2214-2.7108 3.3364-2.7406 4.0513-0.0596 0.68515-0.35747 1.9363-1.1022 2.6512-0.74473 0.74473-0.8341 1.9959-0.77452 2.3831 0.0596 0.38726-0.11915 2.115-1.1022 2.5916"/>
  <path id="path724" style="stroke:#000000;stroke-width:.81026;fill:none" inkscape:connector-curvature="0" d="m421.8 171.29s-0.92346-2.4725-3.0087-1.5788c-2.0852 0.89367-1.8767 1.2214-3.7534 1.1022-1.8767-0.11915-0.71493-2.2342 0.20853-3.1874 0 0-2.9789-1.132-3.6045-3.7534 0 0 1.5788-1.8469 5.362-1.132 0 0-0.11916-1.9065 0.41705-2.7108 0 0 4.0513 1.2511 4.0811 3.5151 0 0-1.2214-4.4386 0.92346-7.6856 0 0 1.9065 0.8341 1.7873 2.8598 0 0 0.86388-4.1705 6.494-3.0683 0 0-3.0385 2.7108-3.1874 3.9619-0.14895 1.2214-2.7108 3.3364-2.7406 4.0513-0.0596 0.68515-0.35747 1.9363-1.1022 2.6512-0.74473 0.74473-0.8341 1.9959-0.77452 2.3831 0.0596 0.38726-0.11915 2.115-1.1022 2.5916z"/>
  <path id="path725" style="fill:#ffffff" inkscape:connector-curvature="0" d="m418.77 166.35c0.41705-2.0256 2.3831-3.3662 4.4088-2.9789 0.59578 0.11916 1.1022 0.35747 1.549 0.68515-0.11916 0.71493-0.41705 1.6682-1.0426 2.264-0.74472 0.74473-0.83409 1.9959-0.77451 2.3831 0.0596 0.29789-0.0596 1.4299-0.56599 2.1448-0.20852-0.0298-0.38726-0.0298-0.59578-0.0894-2.0256-0.38725-3.3662-2.3533-2.9789-4.4088"/>
  <path id="path726" style="stroke:#000000;stroke-width:.50046;fill:none" inkscape:connector-curvature="0" d="m418.77 166.35c0.41705-2.0256 2.3831-3.3662 4.4088-2.9789 0.59578 0.11916 1.1022 0.35747 1.549 0.68515-0.11916 0.71493-0.41705 1.6682-1.0426 2.264-0.74472 0.74473-0.83409 1.9959-0.77451 2.3831 0.0596 0.29789-0.0596 1.4299-0.56599 2.1448-0.20852-0.0298-0.38726-0.0298-0.59578-0.0894-2.0256-0.38725-3.3662-2.3533-2.9789-4.4088z"/>
  <path id="path727" style="fill:#ffffff" inkscape:connector-curvature="0" d="m420.43 166.68c0.23832-1.1022 1.3107-1.8469 2.4427-1.6086 0.47663 0.0894 0.92346 0.35747 1.2214 0.74473-0.11915 0.17873-0.2681 0.35747-0.41704 0.50641-0.74473 0.74473-0.8341 1.9959-0.77452 2.3831 0.0298 0.0894 0.0298 0.20853 0 0.38726-0.2681 0.0596-0.5362 0.0596-0.83409 0-1.1022-0.20852-1.8469-1.2809-1.6384-2.4129"/>
  <path id="path728" style="stroke:#000000;stroke-width:.31278;fill:none" inkscape:connector-curvature="0" d="m420.43 166.68c0.23832-1.1022 1.3107-1.8469 2.4427-1.6086 0.47663 0.0894 0.92346 0.35747 1.2214 0.74473-0.11915 0.17873-0.2681 0.35747-0.41704 0.50641-0.74473 0.74473-0.8341 1.9959-0.77452 2.3831 0.0298 0.0894 0.0298 0.20853 0 0.38726-0.2681 0.0596-0.5362 0.0596-0.83409 0-1.1022-0.20852-1.8469-1.2809-1.6384-2.4129z"/>
  <path id="path729" style="fill:#ffcc00" inkscape:connector-curvature="0" d="m312.66 170.25s1.1022-2.4129 3.1278-1.4001 1.7873 1.3405 3.664 1.3405 0.86389-2.2044 0-3.2172c0 0 3.0385-0.92346 3.813-3.4853 0 0-1.4597-1.9661-5.3024-1.4894 0 0 0.23832-1.8767-0.20852-2.7406 0 0-4.1407 1.0128-4.2896 3.2768 0 0 1.4597-4.3492-0.47663-7.7154 0 0-1.9363 0.71493-1.9363 2.7406 0 0-0.62557-4.23-6.3153-3.4555 0 0 2.8597 2.8895 2.9491 4.1407 0.0894 1.2511 2.5023 3.5151 2.5023 4.23 0 0.68515 0.23831 1.9363 0.92345 2.7108 0.71494 0.77451 0.71494 2.0256 0.62557 2.4129-0.0894 0.38726 0 2.115 0.92346 2.6512"/>
  <path id="path730" style="stroke:#000000;stroke-width:.81026;fill:none" inkscape:connector-curvature="0" d="m312.66 170.25s1.1022-2.4129 3.1278-1.4001 1.7873 1.3405 3.664 1.3405 0.86389-2.2044 0-3.2172c0 0 3.0385-0.92346 3.813-3.4853 0 0-1.4597-1.9661-5.3024-1.4894 0 0 0.23832-1.8767-0.20852-2.7406 0 0-4.1407 1.0128-4.2896 3.2768 0 0 1.4597-4.3492-0.47663-7.7154 0 0-1.9363 0.71493-1.9363 2.7406 0 0-0.62557-4.23-6.3153-3.4555 0 0 2.8597 2.8895 2.9491 4.1407 0.0894 1.2511 2.5023 3.5151 2.5023 4.23 0 0.68515 0.23831 1.9363 0.92345 2.7108 0.71494 0.77451 0.71494 2.0256 0.62557 2.4129-0.0894 0.38726 0 2.115 0.92346 2.6512z"/>
  <path id="path731" style="fill:#ffffff" inkscape:connector-curvature="0" d="m315.99 165.51c-0.2681-2.0554-2.1448-3.5151-4.23-3.247-0.56599 0.0894-1.1022 0.29789-1.549 0.59578 0.0596 0.71493 0.29789 1.6682 0.89367 2.3235 0.71494 0.77451 0.71494 2.0256 0.62557 2.4129-0.0596 0.32768-0.0298 1.4299 0.44684 2.1746 0.20852 0 0.38725 0 0.59578-0.0298 2.0554-0.2681 3.5151-2.1746 3.2172-4.23"/>
  <path id="path732" style="stroke:#000000;stroke-width:.50046;fill:none" inkscape:connector-curvature="0" d="m315.99 165.51c-0.2681-2.0554-2.1448-3.5151-4.23-3.247-0.56599 0.0894-1.1022 0.29789-1.549 0.59578 0.0596 0.71493 0.29789 1.6682 0.89367 2.3235 0.71494 0.77451 0.71494 2.0256 0.62557 2.4129-0.0596 0.32768-0.0298 1.4299 0.44684 2.1746 0.20852 0 0.38725 0 0.59578-0.0298 2.0554-0.2681 3.5151-2.1746 3.2172-4.23z"/>
  <path id="path733" style="fill:#ffffff" inkscape:connector-curvature="0" d="m314.33 165.72c-0.14895-1.132-1.1916-1.9065-2.3236-1.7576-0.50641 0.0596-0.95324 0.32768-1.2511 0.68515 0.0894 0.17873 0.20852 0.38726 0.35746 0.5362 0.71494 0.77451 0.71494 2.0256 0.62557 2.4129-0.0298 0.0894-0.0298 0.20852-0.0298 0.38726 0.2681 0.0596 0.56599 0.0894 0.8341 0.0596 1.132-0.14894 1.9363-1.1916 1.7873-2.3235"/>
  <path id="path734" style="stroke:#000000;stroke-width:.31278;fill:none" inkscape:connector-curvature="0" d="m314.33 165.72c-0.14895-1.132-1.1916-1.9065-2.3236-1.7576-0.50641 0.0596-0.95324 0.32768-1.2511 0.68515 0.0894 0.17873 0.20852 0.38726 0.35746 0.5362 0.71494 0.77451 0.71494 2.0256 0.62557 2.4129-0.0298 0.0894-0.0298 0.20852-0.0298 0.38726 0.2681 0.0596 0.56599 0.0894 0.8341 0.0596 1.132-0.14894 1.9363-1.1916 1.7873-2.3235z"/>
  <path id="path735" style="stroke:#000000;stroke-width:1.8707;fill:none" inkscape:connector-curvature="0" d="m318.97 193.01s41.854-16.384 94.729 0.35746"/>
  <path id="path736" style="stroke:#000000;stroke-width:.62259;fill:none" inkscape:connector-curvature="0" d="m419.6 179.96c-58.42-18.5-104.98-1.04-104.98-1.04"/>
  <path id="path737" style="fill:#ff0000" inkscape:connector-curvature="0" d="m367.02 175.88-4.6769 2.3235 4.2002 2.6512 4.9748-2.5023-4.4981-2.4725"/>
  <path id="path738" style="stroke:#000000;stroke-width:.62259;fill:none" inkscape:connector-curvature="0" d="m367.02 175.88-4.6769 2.3235 4.2002 2.6512 4.9748-2.5023-4.4981-2.4725"/>
  <metadata id="metadata187">
    <rdf:RDF>
      <cc:Work>
        <dc:format>image/svg+xml</dc:format>
        <dc:type rdf:resource="http://purl.org/dc/dcmitype/StillImage"/>
        <cc:license rdf:resource="http://creativecommons.org/licenses/publicdomain/"/>
        <dc:publisher>
          <cc:Agent rdf:about="http://openclipart.org/">
            <dc:title>Openclipart</dc:title>
          </cc:Agent>
        </dc:publisher>
      </cc:Work>
      <cc:License rdf:about="http://creativecommons.org/licenses/publicdomain/">
        <cc:permits rdf:resource="http://creativecommons.org/ns#Reproduction"/>
        <cc:permits rdf:resource="http://creativecommons.org/ns#Distribution"/>
        <cc:permits rdf:resource="http://creativecommons.org/ns#DerivativeWorks"/>
      </cc:License>
    </rdf:RDF>
  </metadata>
</svg>
